<?xml version="1.0" encoding="UTF-8" standalone="no" ?>
<!DOCTYPE svg PUBLIC "-//W3C//DTD SVG 1.1//EN" "http://www.w3.org/Graphics/SVG/1.1/DTD/svg11.dtd">
<svg xmlns="http://www.w3.org/2000/svg" xmlns:xlink="http://www.w3.org/1999/xlink" version="1.1" width="1000" height="1000" viewBox="0 0 500 500" xml:space="preserve">
<desc>Created with Fabric.js 4.6.0</desc>
<defs>
</defs>
<g transform="matrix(1 0 0 1 249.8 251.86)" id="Dfk1ZZBX9CWkwS755DTB7"  >
<path style="stroke: rgb(0,0,0); stroke-width: 0; stroke-dasharray: none; stroke-linecap: butt; stroke-dashoffset: 0; stroke-linejoin: miter; stroke-miterlimit: 4; fill: rgb(92,45,145); fill-rule: nonzero; opacity: 1;" vector-effect="non-scaling-stroke"  transform=" translate(0, 0)" d="M -61.56754 -147.77284 C -138.90833 -148.26857 -249.52712 -88.30767 -250.03784000000002 37.90485000000001 C -250.54856 164.11737 -152.7414 203.48453 -141.03464000000002 211.00937000000002 C -129.32788000000002 218.53420000000003 -22.381790000000024 247.79693000000003 76.58193999999997 193.39279000000002 C 116.19607999999997 169.61195 133.10894999999996 149.58425000000003 136.77733999999998 145.25878 C 140.44572 140.93331 131.92019 145.98337 131.92019 145.98337 C 131.92019 145.98337 84.08339 181.58762000000002 0.20488000000000284 192.33528 C -83.67362 203.08294 -119.37947 182.22375000000002 -119.37947 182.22375000000002 C -119.37947 182.22375000000002 -171.04633 166.26476000000002 -198.01745 112.88699000000003 C -224.98856999999998 59.50922000000003 -228.67443 2.3443700000000263 -178.54217 -62.797589999999985 C -128.40991 -127.93954999999998 -45.59620000000001 -113.43902999999999 -37.95832999999999 -113.92253 C -30.32045999999999 -114.40603 53.82479000000001 -92.61064999999999 81.33288000000002 -20.442359999999994 C 108.84097000000001 51.72592 79.71476000000001 87.64825 79.71476000000001 87.64825 C 79.71476000000001 87.64825 64.18078000000001 110.00034000000001 38.290810000000015 110.64759000000001 C 12.400840000000013 111.29484000000001 -2.4733099999999837 98.53371000000001 -10.563919999999989 86.5596 C -22.23151999999999 100.24645000000001 -44.48939999999999 114.58076 -68.12858999999999 114.11420000000001 C -91.76777999999999 113.64764000000001 -142.77909999999997 97.65062 -144.05029 37.90485000000001 C -145.32147999999998 -21.840909999999987 -88.32995 -37.49907999999999 -73.49943999999999 -38.134669999999986 C -58.66892999999999 -38.770259999999986 -22.863849999999992 -38.134669999999986 -22.863849999999992 -38.134669999999986 C -22.863849999999992 -38.134669999999986 5.394860000000008 -37.84813999999999 7.513500000000008 -7.9752599999999845 C 7.769680000000007 22.613950000000017 7.513500000000008 31.623040000000017 7.513500000000008 44.864570000000015 C 7.513500000000008 58.10610000000001 12.605770000000007 78.16601000000001 34.00112000000001 78.47609000000001 C 55.39647000000001 78.78617000000001 62.68329000000001 56.182400000000015 62.68329000000001 44.244410000000016 C 62.68329000000001 32.30643000000002 59.53815000000001 -7.52097999999998 35.55995000000001 -36.40380999999998 C 11.581750000000007 -65.28663999999998 -13.65397999999999 -74.54077999999998 -28.475739999999995 -79.04359999999997 C -43.29749999999999 -83.54640999999997 -80.82095999999999 -88.04922999999997 -117.40632 -69.85034999999996 C -153.99169 -51.651479999999964 -183.24111 -10.052139999999966 -185.17658999999998 37.90485000000004 C -187.11207 85.86184000000003 -156.16644999999997 122.32555000000004 -127.00982999999998 141.84362000000004 C -97.85319999999999 161.36169000000004 -43.781619999999975 172.35454000000004 23.83496000000001 157.06957000000006 C 91.45154000000001 141.78460000000007 169.17253 89.38832000000005 204.35628000000003 32.33908000000005 C 239.54002000000003 -24.710159999999945 250.37769000000003 -77.35712999999994 250.03188000000003 -113.92252999999994 C 249.68607000000003 -150.48792999999995 245.03207000000003 -190.53882999999993 226.02622000000002 -222.70257999999995 C 223.54084000000003 -226.35754999999995 221.74990000000003 -227.30783999999994 218.57008000000002 -221.24058999999997 C 215.39026 -215.17333999999997 188.12365000000003 -164.16791999999998 151.91197000000003 -145.17760999999996 C 123.05323000000003 -129.67993999999996 124.38489000000003 -130.65266999999994 97.30456000000002 -122.26124999999996 C 93.53784000000002 -120.97041999999996 91.65204000000003 -124.31721999999996 95.43902000000003 -128.34088999999997 C 99.22600000000003 -132.36455999999998 117.57275000000003 -172.46509999999998 119.38763000000003 -198.78088999999997 C 119.75061000000002 -206.04041999999998 114.40356000000003 -200.46746999999996 112.88970000000003 -198.78088999999997 C 111.37584000000004 -197.09430999999998 82.67207000000003 -166.50182999999998 43.21338000000003 -155.53316999999998 C 25.934600000000028 -150.73003999999997 16.23968000000003 -148.58123999999998 9.49669000000003 -148.27283999999997 C 2.753710000000029 -147.96443999999997 -0.8729799999999699 -147.77430999999999 -4.04531999999997 -147.77283999999997 C -9.68899999999997 -147.77022999999997 -17.416549999999972 -147.48984999999996 -61.56752999999997 -147.77283999999997 z" stroke-linecap="round" />
</g>
<g transform="matrix(1 0 0 1 181.65 289.21)" id="DkweSn-qU6y0KJrCdn53g"  >
<path style="stroke: rgb(0,0,0); stroke-width: 0; stroke-dasharray: none; stroke-linecap: butt; stroke-dashoffset: 0; stroke-linejoin: miter; stroke-miterlimit: 4; fill: rgb(92,45,145); fill-rule: nonzero; opacity: 1;" vector-effect="non-scaling-stroke"  transform=" translate(0, 0)" d="M -2.31194 -45.22436 C -28.31241 -45.690709999999996 -45.1904 -18.899269999999998 -45.37221 -1.1519499999999994 C -45.554010000000005 16.59537 -31.29343 44.77398 -2.31194 45.236940000000004 C 26.66954 45.69990000000001 45.02726 23.833500000000004 45.27594 1.4261000000000053 C 45.52462 -20.981309999999993 45.213969999999996 -38.388349999999996 45.27594 -40.965329999999994 C 45.33791 -43.54230999999999 44.82714 -45.09119999999999 40.953689999999995 -45.22436 C 37.080239999999996 -45.357519999999994 23.688529999999993 -44.75801 -2.311940000000007 -45.22436 z" stroke-linecap="round" />
</g>
</svg>